<?xml version="1.0" standalone="no"?>
<!DOCTYPE svg PUBLIC "-//W3C//DTD SVG 1.1//EN" "http://www.w3.org/Graphics/SVG/1.1/DTD/svg11.dtd" >
<svg xmlns="http://www.w3.org/2000/svg">
<metadata></metadata>
<defs>
<font id="sero_probold_italic" horiz-adv-x="1171" >
<font-face units-per-em="2048" ascent="1593" descent="-455" />
<missing-glyph horiz-adv-x="450" />
<glyph horiz-adv-x="0" />
<glyph horiz-adv-x="0" />
<glyph horiz-adv-x="682" />
<glyph unicode="&#xd;" horiz-adv-x="450" />
<glyph unicode=" "  horiz-adv-x="450" />
<glyph unicode="&#x09;" horiz-adv-x="450" />
<glyph unicode="&#xa0;" horiz-adv-x="450" />
<glyph unicode="!" horiz-adv-x="690" d="M94 152q0 76 53 126t136 50t135.5 -50t52.5 -126t-53 -126.5t-135 -50.5q-83 0 -136 50.5t-53 126.5zM205 459l119 1016h378l-237 -1016h-260z" />
<glyph unicode="&#x22;" horiz-adv-x="921" d="M211 885l86 590h262l-123 -590h-225zM608 885l86 590h262l-122 -590h-226z" />
<glyph unicode="#" d="M-20 0l149 381h-145l39 225h192l72 180h-164l39 226h211l149 381h266l-149 -381h199l149 381h266l-149 -381h145l-39 -226h-192l-72 -180h164l-39 -225h-211l-149 -381h-267l150 381h-199l-149 -381h-266zM481 606h199l72 180h-199z" />
<glyph unicode="$" horiz-adv-x="1155" d="M-6 119l123 252q205 -107 370 -107q118 0 192.5 47.5t74.5 122.5q0 47 -32 83t-82.5 61.5t-112 50t-123 56.5t-112 73t-82.5 107.5t-32 152.5q0 182 129.5 304t339.5 146l31 170h201l-31 -170q181 -23 338 -110l-125 -260q-172 102 -324 102q-100 0 -163.5 -43.5 t-63.5 -107.5q0 -37 24.5 -66.5t65 -49.5t92.5 -42.5t105.5 -43.5t105.5 -54.5t92.5 -73.5t65 -102.5t24.5 -139.5q0 -188 -134.5 -315.5t-358.5 -155.5l-37 -211h-201l37 209q-215 18 -397 115z" />
<glyph unicode="%" horiz-adv-x="1685" d="M154 0l1159 1475h295l-1159 -1475h-295zM176 1110q0 97 43.5 182t130 140t197.5 55q147 0 234 -90.5t87 -229.5q0 -97 -43.5 -181.5t-129.5 -139.5t-197 -55q-147 0 -234.5 90.5t-87.5 228.5zM416 1100q0 -63 22.5 -99t65.5 -36q60 0 92.5 64t32.5 145q0 63 -22.5 99 t-65.5 36q-60 0 -92.5 -64t-32.5 -145zM893 307q0 97 43.5 182t130 140t197.5 55q147 0 234 -90t87 -229q0 -97 -43.5 -182t-130 -140t-197.5 -55q-147 0 -234 90t-87 229zM1133 297q0 -63 22.5 -99t65.5 -36q60 0 92.5 64t32.5 145q0 63 -23 99t-66 36q-60 0 -92 -64 t-32 -145z" />
<glyph unicode="&#x26;" horiz-adv-x="1275" d="M-6 336q0 83 30.5 152t88.5 120.5t120.5 88t147.5 71.5q-56 83 -80.5 140t-24.5 126q0 167 131.5 275t348.5 108q198 0 310 -90.5t112 -230.5q0 -61 -24.5 -114.5t-59.5 -91t-95 -75t-109.5 -61t-123.5 -54.5l141 -219q80 96 158 207l186 -153q-119 -158 -207 -248 l140 -203l-242 -168l-123 182q-189 -123 -397 -123q-191 0 -309.5 97t-118.5 264zM322 362q0 -69 42.5 -111t122.5 -42q103 0 209 74l-192 303q-87 -46 -134.5 -99.5t-47.5 -124.5zM578 1032q0 -10 1 -19t4 -19t5 -17.5t8 -18.5t8.5 -17t11 -19t11.5 -18t13 -20t13 -20 q123 50 184.5 93.5t61.5 105.5q0 50 -39 86.5t-108 36.5q-75 0 -124.5 -44t-49.5 -110z" />
<glyph unicode="'" horiz-adv-x="522" d="M211 885l86 590h262l-123 -590h-225z" />
<glyph unicode="(" horiz-adv-x="765" d="M53 412q0 119 23 230.5t59 199.5t94 175t111.5 150t129.5 131.5t131.5 111.5t131.5 99l137 -180q-88 -70 -153 -132.5t-131.5 -148.5t-108 -176t-68 -208.5t-26.5 -253.5q0 -215 58 -389t149 -293l-193 -123q-344 339 -344 807z" />
<glyph unicode=")" horiz-adv-x="765" d="M-88 -201q88 70 153 132.5t131.5 148.5t108 176t68 209t26.5 254q0 215 -57.5 389t-148.5 293l192 123q344 -339 344 -807q0 -119 -23 -230.5t-59 -199.5t-94 -175.5t-111.5 -150t-129.5 -131.5t-131.5 -112t-131.5 -99z" />
<glyph unicode="*" horiz-adv-x="890" d="M143 1006v178l260 -15l-141 215l152 91l118 -236l119 236l152 -91l-141 -215l260 15v-178l-260 14l141 -215l-152 -90l-119 235l-118 -235l-152 90l141 215z" />
<glyph unicode="+" d="M63 395l46 254h368l70 395h262l-70 -395h369l-45 -254h-369l-69 -395h-263l70 395h-369z" />
<glyph unicode="," horiz-adv-x="616" d="M-80 -215q222 97 279 215q-72 8 -117 56t-45 118q0 77 51.5 127.5t136.5 50.5q97 0 159 -67.5t62 -186.5q0 -48 -11 -92.5t-39.5 -93.5t-74 -94.5t-119 -94t-169.5 -92.5z" />
<glyph unicode="-" horiz-adv-x="831" d="M98 528l39 220h637l-39 -220h-637z" />
<glyph unicode="." horiz-adv-x="616" d="M45 164q0 80 55.5 134t141.5 54q85 0 140.5 -54t55.5 -134t-55.5 -134.5t-140.5 -54.5t-141 54.5t-56 134.5z" />
<glyph unicode="/" horiz-adv-x="1331" d="M-57 -82l1149 1557h358l-1149 -1557h-358z" />
<glyph unicode="0" horiz-adv-x="1320" d="M98 621q0 137 30.5 267t89.5 240.5t140 193.5t189 130t229 47q235 0 377.5 -170t142.5 -475q0 -172 -48.5 -331t-134.5 -280.5t-215 -194.5t-280 -73q-235 0 -377.5 170.5t-142.5 475.5zM430 614q0 -183 53.5 -277.5t153.5 -94.5q97 0 173 85.5t115.5 224t39.5 300.5 q0 183 -53.5 278t-153.5 95q-97 0 -173 -86t-115.5 -224.5t-39.5 -300.5z" />
<glyph unicode="1" horiz-adv-x="825" d="M182 1290l387 185h252l-260 -1475h-323l196 1116l-205 -92z" />
<glyph unicode="2" horiz-adv-x="1165" d="M-29 0l43 238q227 156 383.5 279.5t247.5 220.5t130.5 171.5t39.5 141.5q0 76 -46.5 121t-137.5 45q-101 0 -199.5 -53t-183.5 -142l-47 285q82 86 210 140t275 54q212 0 335.5 -114t123.5 -306q0 -136 -70 -267.5t-202 -261t-349 -288.5h512l-47 -264h-1018z" />
<glyph unicode="3" horiz-adv-x="1140" d="M-53 90l123 256q105 -52 189.5 -79t178.5 -27q133 0 203 54.5t70 145.5q0 87 -71.5 130.5t-231.5 43.5q-59 0 -150 -6l45 250q188 0 304.5 28.5t163 75.5t46.5 117q0 73 -49.5 110.5t-140.5 37.5q-153 0 -371 -119l-29 276q213 117 451 117q212 0 340.5 -93t128.5 -265 q0 -138 -89.5 -238.5t-260.5 -154.5q260 -81 260 -328q0 -206 -167 -326.5t-450 -120.5q-274 0 -493 115z" />
<glyph unicode="4" horiz-adv-x="1294" d="M2 285l45 250l770 940h406l-162 -924h209l-47 -266h-209l-51 -285h-322l51 285h-690zM389 551h350l97 557z" />
<glyph unicode="5" horiz-adv-x="1124" d="M-47 90l123 258q93 -49 179.5 -76.5t184.5 -27.5q147 0 227.5 65.5t80.5 177.5q0 106 -73.5 155.5t-221.5 49.5q-162 0 -342 -49l174 832h895l-50 -275h-583l-55 -260q62 4 90 4q227 0 361 -120t134 -332q0 -239 -171.5 -378t-463.5 -139q-267 0 -489 115z" />
<glyph unicode="6" horiz-adv-x="1234" d="M98 643q0 137 29.5 263t90.5 234t147.5 188t208 125.5t264.5 45.5q238 0 419 -106l-124 -260q-87 46 -153 69t-146 23q-161 0 -257.5 -100t-132.5 -269q136 131 316 131q191 0 306.5 -126t115.5 -335q0 -124 -43.5 -229t-118 -174.5t-173.5 -108.5t-210 -39 q-117 0 -215.5 44.5t-170.5 128t-112.5 210.5t-40.5 285zM422 606q3 -192 63 -282.5t160 -90.5q97 0 159 75t62 196q0 107 -51.5 165t-142.5 58q-112 0 -250 -121z" />
<glyph unicode="7" horiz-adv-x="1026" d="M43 0q372 710 682 1190h-584l52 285h981l-48 -267q-317 -487 -694 -1208h-389z" />
<glyph unicode="8" horiz-adv-x="1216" d="M16 377q0 66 21 121.5t54.5 95t86 74.5t103 58t118.5 48q-196 118 -196 313q0 180 148 296t384 116q220 0 349.5 -102.5t129.5 -270.5q0 -132 -81 -218.5t-228 -145.5q57 -29 99 -60t78.5 -72t55.5 -94.5t19 -117.5q0 -196 -165.5 -319.5t-434.5 -123.5 q-250 0 -395.5 109.5t-145.5 292.5zM348 389q0 -86 60.5 -134t162.5 -48q108 0 181 53.5t73 145.5q0 79 -52.5 132t-154.5 109q-63 -24 -105.5 -45.5t-83.5 -52.5t-61 -71t-20 -89zM522 1094q0 -65 42.5 -112t121.5 -93q102 44 155.5 93.5t53.5 125.5q0 71 -46.5 111.5 t-125.5 40.5q-86 0 -143.5 -45.5t-57.5 -120.5z" />
<glyph unicode="9" horiz-adv-x="1234" d="M53 82l125 250q87 -46 153 -69t146 -23q163 0 259.5 103.5t131.5 277.5q-137 -134 -317 -134q-191 0 -306.5 126t-115.5 335q0 124 43.5 229t118 174.5t173.5 108.5t210 39q117 0 215.5 -44.5t170 -128t112 -210.5t40.5 -285q0 -137 -29.5 -263t-90.5 -234t-147.5 -188 t-207.5 -125.5t-264 -45.5q-237 0 -420 107zM444 961q0 -107 52 -165.5t141 -58.5q59 0 118 28.5t134 90.5q-4 193 -63.5 284t-159.5 91q-98 0 -160 -74.5t-62 -195.5z" />
<glyph unicode=":" horiz-adv-x="616" d="M45 164q0 80 55.5 134t141.5 54q85 0 140.5 -54t55.5 -134t-55.5 -134.5t-140.5 -54.5t-141 54.5t-56 134.5zM160 836q0 80 55.5 134t140.5 54q86 0 141.5 -54t55.5 -134t-56 -134.5t-141 -54.5t-140.5 54.5t-55.5 134.5z" />
<glyph unicode=";" horiz-adv-x="616" d="M-80 -215q222 97 279 215q-72 8 -117 56t-45 118q0 77 51.5 127.5t136.5 50.5q97 0 159 -67.5t62 -186.5q0 -48 -11 -92.5t-39.5 -93.5t-74 -94.5t-119 -94t-169.5 -92.5zM160 836q0 80 55.5 134t140.5 54q86 0 141.5 -54t55.5 -134t-56 -134.5t-141 -54.5t-140.5 54.5 t-55.5 134.5z" />
<glyph unicode="&#x3c;" d="M66 410l40 225l1072 409l-45 -258l-771 -274l672 -279l-41 -233z" />
<glyph unicode="=" d="M29 199l41 227h999l-41 -227h-999zM102 616l41 228h1000l-41 -228h-1000z" />
<glyph unicode="&#x3e;" d="M-6 0l45 258l770 274l-672 279l41 233l928 -409l-41 -225z" />
<glyph unicode="?" horiz-adv-x="888" d="M68 152q0 76 52 126t136 50t136 -50t52 -126t-52 -126.5t-136 -50.5t-136 50.5t-52 126.5zM176 535q0 56 23 106.5t59.5 89.5t81 75t89 70t81 67t59.5 73t23 82q0 71 -59 108t-158 37q-69 0 -174 -18l45 250q123 24 219 24q210 0 333.5 -92t123.5 -262 q0 -76 -26.5 -141.5t-69 -112t-94 -88t-103 -77.5t-94 -71.5t-69 -80t-26.5 -93.5v-22h-254q-10 41 -10 76z" />
<glyph unicode="@" horiz-adv-x="1712" d="M92 528q0 229 100 411.5t282.5 286t414.5 103.5q318 0 514 -188.5t196 -497.5q0 -118 -31 -210.5t-85 -150t-124 -87t-151 -29.5q-96 0 -158 40t-83 111q-61 -74 -120.5 -112.5t-141.5 -38.5q-111 0 -180.5 78.5t-69.5 236.5q0 97 28 183.5t82.5 155.5t143 109t200.5 40 q140 0 281 -62l-41 -387q-4 -36 -4 -53q0 -123 84 -123q72 0 117 85.5t45 213.5q0 225 -139 361.5t-365 136.5q-171 0 -306 -80.5t-208.5 -220t-73.5 -312.5q0 -130 44 -233t120 -168t175.5 -99t213.5 -34q166 0 375 80l57 -187q-215 -82 -434 -82q-159 0 -296.5 47.5 t-240.5 136.5t-162 228t-59 311zM670 489q0 -135 84 -135q87 0 178 138l31 280q-40 16 -84 16q-59 0 -102.5 -30t-65.5 -78.5t-31.5 -96t-9.5 -94.5z" />
<glyph unicode="A" horiz-adv-x="1423" d="M-57 0l745 1475h395l213 -1475h-333l-35 299h-498l-137 -299h-350zM545 547h352l-72 608z" />
<glyph unicode="B" horiz-adv-x="1376" d="M66 0l260 1475h495q235 0 368.5 -92t133.5 -277q0 -132 -70 -226t-206 -139q219 -82 219 -313q0 -193 -153.5 -310.5t-444.5 -117.5h-602zM438 250h230q133 0 200.5 52.5t67.5 152.5q0 168 -203 168h-229zM545 860h194q126 0 190 50.5t64 144.5q0 83 -48 121t-144 38 h-193z" />
<glyph unicode="C" horiz-adv-x="1232" d="M96 610q0 140 33.5 270.5t101.5 242.5t163 196t225.5 132t281.5 48q238 0 420 -113l-125 -266q-166 101 -305 101q-112 0 -202 -50.5t-145 -135t-84.5 -189t-29.5 -219.5q0 -195 81.5 -289t219.5 -94q159 0 336 114l33 -270q-203 -113 -422 -113q-129 0 -235.5 40.5 t-184 118.5t-120 199.5t-42.5 276.5z" />
<glyph unicode="D" horiz-adv-x="1472" d="M66 0l260 1475h467q297 0 473 -171.5t176 -476.5q0 -131 -33 -252t-101 -225.5t-163.5 -182.5t-228 -122.5t-287.5 -44.5h-563zM446 268h183q117 0 210 45.5t151 123.5t88 175.5t30 206.5q0 189 -86.5 283t-228.5 94h-183z" />
<glyph unicode="E" horiz-adv-x="1208" d="M66 0l260 1475h968l-49 -279h-635l-57 -319h551l-45 -263h-551l-62 -346h641l-47 -268h-974z" />
<glyph unicode="F" horiz-adv-x="1122" d="M66 0l260 1475h923l-49 -279h-590l-59 -340h514l-45 -262h-516l-105 -594h-333z" />
<glyph unicode="G" horiz-adv-x="1411" d="M96 618q0 144 34 275.5t104 242t168.5 191.5t235 126.5t296.5 45.5q275 0 485 -137l-127 -268q-88 61 -175 94t-193 33q-123 0 -218.5 -46.5t-155 -128t-90 -187.5t-30.5 -230q0 -210 84.5 -303t247.5 -93q65 0 145 17l56 303h-240l43 248h555l-125 -715 q-224 -111 -475 -111q-299 0 -462 163.5t-163 479.5z" />
<glyph unicode="H" horiz-adv-x="1482" d="M66 0l260 1475h333l-102 -582h498l102 582h334l-260 -1475h-334l109 614h-498l-109 -614h-333z" />
<glyph unicode="I" horiz-adv-x="673" d="M78 0l260 1475h334l-260 -1475h-334z" />
<glyph unicode="J" horiz-adv-x="843" d="M-53 2l47 270q86 -16 156 -16q107 0 153.5 49.5t67.5 169.5l176 1000h334l-187 -1057q-16 -89 -37.5 -152.5t-61 -119t-97 -88.5t-143 -51.5t-201.5 -18.5q-114 0 -207 14z" />
<glyph unicode="K" horiz-adv-x="1396" d="M66 0l260 1475h333l-106 -605l541 605h405l-573 -580l350 -895h-340l-248 653l-211 -213l-78 -440h-333z" />
<glyph unicode="L" horiz-adv-x="1105" d="M66 0l260 1475h333l-210 -1196h575l-49 -279h-909z" />
<glyph unicode="M" horiz-adv-x="1972" d="M47 0l385 1475h428l76 -775q20 -203 22 -309h5q58 158 139 328l362 756h420l-143 -1475h-334l94 743q24 185 51 332h-4q-20 -78 -135 -315l-377 -760h-299l-92 764q-22 178 -29 311h-4q-67 -311 -71 -327l-170 -748h-324z" />
<glyph unicode="N" horiz-adv-x="1497" d="M66 0l260 1475h350l364 -889l158 889h307l-260 -1475h-278l-416 1014l-178 -1014h-307z" />
<glyph unicode="O" horiz-adv-x="1480" d="M98 649q0 175 55.5 331t152.5 270.5t237.5 181.5t302.5 67q132 0 243.5 -45t193.5 -129t127.5 -212t45.5 -288q0 -175 -55 -331t-152 -270.5t-237.5 -181.5t-302.5 -67q-132 0 -244 45t-193.5 129t-127.5 212.5t-46 287.5zM432 649q0 -197 78 -300t213 -103q118 0 210 77 t140.5 206.5t48.5 287.5q0 197 -78 300.5t-213 103.5q-118 0 -210 -77.5t-140.5 -207t-48.5 -287.5z" />
<glyph unicode="P" horiz-adv-x="1323" d="M66 0l260 1475h503q248 0 387.5 -112t139.5 -333q0 -237 -163 -371.5t-460 -134.5h-246l-92 -524h-329zM535 786h198q146 0 219.5 59.5t73.5 170.5q0 186 -221 186h-199z" />
<glyph unicode="Q" horiz-adv-x="1492" d="M98 649q0 175 55.5 331t152.5 270.5t237.5 181.5t302.5 67q132 0 243.5 -45t193.5 -129t127.5 -212t45.5 -288q0 -220 -83 -403t-236 -298.5t-349 -135.5q0 -68 36.5 -94.5t119.5 -26.5q85 0 199 29l-47 -263q-130 -26 -248 -26q-169 0 -250.5 72t-81.5 237q0 46 6 92 q-197 54 -310.5 218.5t-113.5 422.5zM432 649q0 -197 78 -300t213 -103q118 0 210 77t140.5 206.5t48.5 287.5q0 197 -78 300.5t-213 103.5q-118 0 -210 -77.5t-140.5 -207t-48.5 -287.5z" />
<glyph unicode="R" horiz-adv-x="1441" d="M66 0l260 1475h557q239 0 369 -104t130 -310q0 -175 -95 -292t-275 -161l241 -608h-344l-223 586h-190l-103 -586h-327zM539 823h241q275 0 275 211q0 88 -51 128t-158 40h-242z" />
<glyph unicode="S" horiz-adv-x="1196" d="M2 100l125 254q222 -112 383 -112q124 0 196 51t72 129q0 49 -32 86.5t-82.5 63.5t-112 51t-123.5 57.5t-112.5 74.5t-82.5 111t-32 158q0 141 75 249.5t206 167t296 58.5q236 0 449 -121l-127 -270q-179 113 -334 113q-104 0 -167.5 -46.5t-63.5 -115.5q0 -46 32 -81 t82.5 -59t112.5 -48t123.5 -56.5t112 -75t82.5 -113t32 -161.5q0 -221 -169 -355.5t-441 -134.5q-276 0 -500 125z" />
<glyph unicode="T" horiz-adv-x="1193" d="M158 1196l49 279h1116l-49 -279h-391l-211 -1196h-334l211 1196h-391z" />
<glyph unicode="U" horiz-adv-x="1411" d="M125 414q0 90 16 178l156 883h336l-164 -930q-8 -49 -8 -94q0 -108 51 -152.5t150 -44.5q119 0 193.5 66t102.5 225l164 930h324l-174 -986q-46 -261 -202 -387.5t-435 -126.5q-247 0 -378.5 103.5t-131.5 335.5z" />
<glyph unicode="V" horiz-adv-x="1363" d="M203 1475h321l133 -1055l502 1055h338l-739 -1475h-346z" />
<glyph unicode="W" horiz-adv-x="1966" d="M211 1475h338l31 -654q6 -134 6 -236q0 -83 -4 -145h4q54 183 137 379l276 656h316l35 -664q6 -114 6 -215q0 -82 -4 -156h4q70 248 125 385l260 650h348l-629 -1475h-325l-41 698q-10 161 -10 304q0 36 1 71h-4q-49 -153 -145 -383l-297 -690h-326z" />
<glyph unicode="X" horiz-adv-x="1409" d="M-25 0l564 760l-287 715h340l178 -490l348 490h373l-541 -713l299 -762h-342l-188 537l-371 -537h-373z" />
<glyph unicode="Y" horiz-adv-x="1329" d="M186 1475h326l203 -576l405 576h359l-635 -881l-105 -594h-333l104 594z" />
<glyph unicode="Z" horiz-adv-x="1259" d="M-33 0l41 227l828 969h-617l49 279h1078l-41 -238l-828 -969h658l-48 -268h-1120z" />
<glyph unicode="[" horiz-adv-x="866" d="M-20 -369l325 1844h678l-41 -232h-348l-244 -1380h348l-41 -232h-677z" />
<glyph unicode="\" horiz-adv-x="1331" d="M217 1475h313l646 -1557h-314z" />
<glyph unicode="]" horiz-adv-x="866" d="M-106 -369l40 232h349l243 1380h-348l41 232h678l-326 -1844h-677z" />
<glyph unicode="^" d="M55 475l586 1000h225l234 -1000h-234l-149 721l-402 -721h-260z" />
<glyph unicode="_" horiz-adv-x="1007" d="M-158 -319l39 223h1024l-39 -223h-1024z" />
<glyph unicode="`" horiz-adv-x="1024" d="M328 1475h344l145 -342h-250z" />
<glyph unicode="a" horiz-adv-x="1185" d="M51 406q0 181 65.5 332.5t183 241t261.5 89.5q79 0 139.5 -31t118.5 -104l21 110h315l-143 -811q-25 -139 -25 -192q0 -33 4 -41h-317q-17 34 -17 63q0 23 5 46q-118 -134 -281 -134q-149 0 -239.5 110t-90.5 321zM381 440q0 -213 141 -213q92 0 174 86l76 420 q-72 66 -145 66q-111 0 -178.5 -102t-67.5 -257z" />
<glyph unicode="b" horiz-adv-x="1202" d="M33 0l260 1475h330l-97 -539q120 133 281 133q153 0 247.5 -115.5t94.5 -328.5q0 -177 -65.5 -325.5t-184 -236.5t-264.5 -88q-158 0 -268 134l-19 -109h-315zM414 293q74 -66 155 -66q114 0 182 101t68 252q0 219 -149 219q-92 0 -183 -88z" />
<glyph unicode="c" horiz-adv-x="919" d="M51 434q0 129 41.5 244t118 202t192 138t254.5 51q158 0 295 -74l-104 -239q-94 61 -180 61q-132 0 -210.5 -105.5t-78.5 -260.5q0 -119 47.5 -176.5t132.5 -57.5q111 0 215 68l19 -240q-130 -70 -297 -70q-204 0 -324.5 117t-120.5 342z" />
<glyph unicode="d" horiz-adv-x="1202" d="M51 412q0 178 66 328.5t184.5 239.5t261.5 89q148 0 258 -121l92 527h330l-219 -1242q-25 -144 -25 -194q0 -24 5 -39h-318q-16 32 -16 63q0 10 4 46q-118 -134 -283 -134q-153 0 -246.5 112t-93.5 325zM381 442q0 -215 151 -215q91 0 177 86l73 416q-76 70 -155 70 q-111 0 -178.5 -102.5t-67.5 -254.5z" />
<glyph unicode="e" horiz-adv-x="1105" d="M51 434q0 178 75.5 322t217.5 228.5t324 84.5q190 0 294.5 -88.5t104.5 -226.5q0 -158 -144.5 -253t-439.5 -95q-69 0 -100 2q9 -104 62.5 -151.5t156.5 -47.5q150 0 313 78l21 -234q-181 -78 -391 -78q-238 0 -366 117t-128 342zM397 596h68q299 0 299 139 q0 46 -30.5 77.5t-88.5 31.5q-84 0 -152 -67.5t-96 -180.5z" />
<glyph unicode="f" horiz-adv-x="708" d="M82 803l43 241h149l25 142q12 70 37 122.5t69.5 94t115.5 63t167 21.5q82 0 162 -12l-41 -234q-39 8 -70 8q-61 0 -85 -28.5t-36 -94.5l-14 -82h172l-43 -241h-172l-141 -803h-330l141 803h-149z" />
<glyph unicode="g" horiz-adv-x="1202" d="M-29 -350l105 237q170 -75 303 -75q241 0 289 266l10 57q-120 -135 -283 -135q-155 0 -249.5 108.5t-94.5 317.5q0 174 65.5 321t184 234.5t264.5 87.5q80 0 144.5 -30.5t124.5 -102.5l18 108h315l-180 -1024q-27 -153 -111 -258t-206.5 -154.5t-276.5 -49.5 q-233 0 -422 92zM381 459q0 -207 151 -207q92 0 181 86l69 391q-80 70 -155 70q-110 0 -178 -98t-68 -242z" />
<glyph unicode="h" horiz-adv-x="1183" d="M33 0l260 1475h330l-101 -570q154 164 344 164q51 0 93.5 -12.5t80.5 -40t60 -80t22 -125.5q0 -55 -8 -102l-125 -709h-330l119 674q2 14 2 26q0 93 -84 93q-95 0 -215 -117l-119 -676h-329z" />
<glyph unicode="i" horiz-adv-x="606" d="M45 0l184 1044h330l-184 -1044h-330zM256 1335q0 76 51 124t135 48t134.5 -48t50.5 -124t-50.5 -124t-134.5 -48t-135 48t-51 124z" />
<glyph unicode="j" horiz-adv-x="606" d="M-201 -430l41 233q39 -8 70 -8q61 0 85 28.5t36 94.5l198 1126h330l-209 -1185q-12 -70 -37 -122.5t-69.5 -94t-115.5 -63t-167 -21.5q-83 0 -162 12zM256 1335q0 76 51 124t135 48t134.5 -48t50.5 -124t-50.5 -124t-134.5 -48t-135 48t-51 124z" />
<glyph unicode="k" horiz-adv-x="1148" d="M33 0l260 1475h330l-144 -811l340 380h367l-422 -405l260 -639h-319l-164 428l-125 -121l-54 -307h-329z" />
<glyph unicode="l" horiz-adv-x="606" d="M45 0l260 1475h330l-260 -1475h-330z" />
<glyph unicode="m" horiz-adv-x="1769" d="M33 0l184 1044h330l-25 -139q152 164 336 164q95 0 160 -46t78 -144q70 83 166 136.5t200 53.5q47 0 87.5 -12t78 -40t59 -82.5t21.5 -129.5q0 -49 -8 -96l-125 -709h-330l119 674q4 28 4 43q0 76 -80 76q-47 0 -94 -28.5t-107 -88.5l-118 -676h-330l119 674q4 28 4 43 q0 76 -80 76q-47 0 -94 -28.5t-107 -88.5l-119 -676h-329z" />
<glyph unicode="n" horiz-adv-x="1183" d="M33 0l184 1044h330l-25 -139q154 164 344 164q51 0 93.5 -12.5t80.5 -40t60 -80t22 -125.5q0 -55 -8 -102l-125 -709h-330l119 674q2 14 2 26q0 93 -84 93q-95 0 -215 -117l-119 -676h-329z" />
<glyph unicode="o" horiz-adv-x="1148" d="M51 451q0 173 74 314.5t208 222.5t302 81q99 0 182.5 -29.5t146.5 -87t98.5 -149t35.5 -209.5q0 -174 -74 -315t-208 -222.5t-302 -81.5q-99 0 -182.5 29.5t-146.5 87t-98.5 149.5t-35.5 210zM381 446q0 -120 39.5 -179.5t111.5 -59.5q105 0 170.5 111t65.5 272 q0 120 -40 179.5t-112 59.5q-105 0 -170 -111t-65 -272z" />
<glyph unicode="p" horiz-adv-x="1202" d="M-43 -430l260 1474h330l-21 -108q120 133 281 133q154 0 248 -115t94 -329q0 -178 -66 -327t-183.5 -236t-262.5 -87q-148 0 -258 121l-92 -526h-330zM414 293q74 -66 155 -66q114 0 182 101t68 252q0 219 -149 219q-92 0 -183 -88z" />
<glyph unicode="q" horiz-adv-x="1202" d="M51 414q0 177 65.5 326.5t183.5 239t263 89.5q162 0 271 -133l18 108h315l-260 -1474h-329l96 539q-118 -134 -283 -134q-153 0 -246.5 112.5t-93.5 326.5zM381 442q0 -215 151 -215q91 0 177 86l73 416q-73 70 -155 70q-111 0 -178.5 -102.5t-67.5 -254.5z" />
<glyph unicode="r" horiz-adv-x="817" d="M33 0l184 1044h330l-31 -178q50 93 126.5 148t172.5 55q48 0 78 -12l-49 -279q-40 4 -78 4q-93 0 -168 -44.5t-123 -96.5l-113 -641h-329z" />
<glyph unicode="s" horiz-adv-x="962" d="M-16 66l102 227q168 -84 295 -84q72 0 122 27t50 73q0 33 -31 58t-77.5 40t-100.5 39t-100.5 53t-77.5 84.5t-31 129.5q0 160 127.5 258t329.5 98q191 0 354 -88l-102 -236q-136 80 -252 80q-59 0 -99 -23.5t-40 -62.5q0 -27 23 -47t60 -34t81 -28t88.5 -35.5t81.5 -51.5 t60 -81t23 -118q0 -169 -134 -269t-355 -100q-220 0 -397 91z" />
<glyph unicode="t" horiz-adv-x="763" d="M82 803l43 241h149l62 349h330l-62 -349h195l-43 -241h-195l-80 -457q-4 -24 -4 -37q0 -38 18.5 -55.5t63.5 -17.5q42 0 100 16l-45 -242q-94 -22 -188 -22q-63 0 -110.5 10t-89.5 35.5t-64.5 74.5t-22.5 121q0 49 15 133l77 441h-149z" />
<glyph unicode="u" horiz-adv-x="1183" d="M59 233q0 51 9 103l125 708h329l-121 -684q-2 -14 -2 -26q0 -51 22 -71.5t62 -20.5q96 0 215 116l121 686h330l-184 -1044h-330l24 139q-154 -164 -344 -164q-51 0 -93.5 12.5t-80.5 40t-60 80t-22 125.5z" />
<glyph unicode="v" horiz-adv-x="1042" d="M88 1044h320l79 -684l316 684h332l-547 -1044h-332z" />
<glyph unicode="w" horiz-adv-x="1515" d="M96 1044h299l31 -423q6 -84 6 -162q0 -44 -2 -86h4q34 111 92 243l189 428h284l27 -421q5 -89 6 -170q0 -41 -2 -80h4q32 135 80 248l180 423h312l-469 -1044h-312l-28 422q-6 89 -6 165q0 46 2 87h-7q-40 -125 -92 -240l-194 -434h-312z" />
<glyph unicode="x" horiz-adv-x="1067" d="M-68 0l412 543l-205 501h320l102 -311l205 311h344l-381 -499l221 -545h-315l-123 354l-238 -354h-342z" />
<glyph unicode="y" horiz-adv-x="1042" d="M-106 -432l45 256q55 -10 108 -10q88 0 144 42.5t120 168.5h-86l-135 1019h326l65 -765l324 765h332l-516 -1067q-84 -172 -154.5 -258.5t-161 -123.5t-235.5 -37q-88 0 -176 10z" />
<glyph unicode="z" horiz-adv-x="1019" d="M-47 0l37 207l588 598h-453l43 239h874l-34 -200l-588 -598h485l-43 -246h-909z" />
<glyph unicode="{" horiz-adv-x="866" d="M45 438l41 230h49q91 0 130 35t54 126l54 306q15 88 47 148t93 105t160 66t242 21h58l-41 -232h-58q-89 0 -129 -36.5t-55 -127.5l-53 -305q-17 -96 -62 -155t-139 -76q121 -45 121 -193q0 -24 -12 -94l-45 -258q-4 -28 -4 -43q0 -46 30.5 -69t102.5 -23h59l-39 -232h-59 q-210 0 -315 74t-105 240q0 51 10 102l45 256q4 28 4 43q0 46 -31 69t-102 23h-51z" />
<glyph unicode="|" horiz-adv-x="815" d="M86 -369l326 1844h325l-325 -1844h-326z" />
<glyph unicode="}" horiz-adv-x="866" d="M-96 -369l41 232h57q89 0 129 36.5t55 127.5l54 305q17 97 61.5 155.5t138.5 75.5q-121 45 -121 193q0 18 13 94l45 258q4 28 4 43q0 46 -30.5 69t-102.5 23h-60l39 232h60q210 0 315 -74t105 -240q0 -46 -11 -102l-45 -256q-4 -28 -4 -43q0 -46 31 -69t102 -23h51 l-40 -230h-50q-91 0 -130 -35.5t-54 -126.5l-53 -305q-15 -88 -47 -148t-93.5 -105t-160.5 -66t-242 -21h-57z" />
<glyph unicode="~" d="M57 610q46 31 128.5 55.5t168.5 24.5q87 0 240 -41t233 -41q136 0 246 74l39 -248q-46 -31 -128.5 -55.5t-168.5 -24.5q-87 0 -240 41t-233 41q-136 0 -246 -74z" />
<glyph unicode="&#xa1;" horiz-adv-x="690" d="M-12 -430l237 1016h260l-118 -1016h-379zM219 893q0 76 53 126t136 50t135.5 -50t52.5 -126t-52.5 -126t-135.5 -50t-136 50t-53 126z" />
<glyph unicode="&#xa2;" horiz-adv-x="970" d="M55 459q0 175 73.5 318.5t217 230t332.5 86.5q39 0 90 -7l109 259h172l-127 -297l65 -31l-104 -232q-50 25 -60 29l-245 -582q114 0 229 68l20 -231q-140 -70 -307 -70h-41l-125 -293h-172l137 324q-126 45 -195 153t-69 275zM371 473q0 -133 63 -190l240 567 q-94 -1 -164 -53.5t-104.5 -136.5t-34.5 -187z" />
<glyph unicode="&#xa3;" horiz-adv-x="1026" d="M-49 217q157 52 235.5 130.5t122.5 232.5l17 57h-252l35 199h272l92 325q20 70 42 118.5t58 93t86 70.5t123.5 41t171.5 15q91 0 140 -8l-43 -238q-44 9 -88 9q-82 0 -121.5 -34.5t-63.5 -119.5l-78 -272h277l-35 -199h-297l-24 -88q-56 -198 -181 -299q145 -29 207 -29 q127 0 232 62l18 -248q-47 -25 -126 -42.5t-157 -17.5q-82 0 -216.5 28t-194.5 28q-125 0 -232 -62z" />
<glyph unicode="&#xa4;" d="M98 225l154 156q-29 69 -29 143q0 75 29 144l-154 155l181 181l161 -164q65 24 140 24q74 0 139 -24l162 164l180 -181l-154 -155q29 -69 29 -144q0 -74 -29 -143l154 -156l-180 -180l-162 164q-67 -25 -139 -25q-73 0 -140 25l-161 -164zM401 524q0 -75 52.5 -127.5 t126.5 -52.5t126 52.5t52 127.5t-52 128t-126 53t-126.5 -53t-52.5 -128z" />
<glyph unicode="&#xa5;" horiz-adv-x="1236" d="M90 231l35 199h313l21 117h-314l35 198h252l-246 730h312l178 -584l375 584h335l-501 -730h250l-35 -198h-314l-20 -117h313l-35 -199h-313l-41 -231h-328l41 231h-313z" />
<glyph unicode="&#xa6;" horiz-adv-x="815" d="M86 -369l141 799h326l-141 -799h-326zM270 676l142 799h325l-141 -799h-326z" />
<glyph unicode="&#xa7;" horiz-adv-x="1196" d="M-18 2l114 227q172 -96 342 -96q225 0 324 141q-137 14 -248 55.5t-197.5 113t-134 182.5t-47.5 254q0 147 50.5 266t138.5 195.5t205.5 117.5t254.5 41q222 0 426 -108l-116 -240q-165 98 -322 98q-93 0 -171.5 -33t-127.5 -100q138 -14 249.5 -56t197.5 -113 t133 -180.5t47 -250.5q0 -149 -52.5 -268.5t-144.5 -196t-214 -117t-265 -40.5q-237 0 -442 108zM410 893q0 -79 21 -142t57.5 -106.5t90 -75.5t113 -50.5t133.5 -29.5q0 342 -415 404z" />
<glyph unicode="&#xa8;" horiz-adv-x="1024" d="M270 1288q0 65 44.5 108.5t111.5 43.5t111.5 -43.5t44.5 -108.5t-44.5 -108t-111.5 -43t-111.5 43t-44.5 108zM709 1288q0 65 44 108.5t111 43.5t111.5 -43.5t44.5 -108.5t-44.5 -108t-111.5 -43t-111 43t-44 108z" />
<glyph unicode="&#xa9;" horiz-adv-x="1716" d="M125 737q0 161 59.5 302.5t161 242.5t242.5 159t299 58t299 -58t242.5 -159t161 -242.5t59.5 -302.5t-59.5 -302.5t-161 -242.5t-242.5 -159t-299 -58t-299 58t-242.5 159t-161 242.5t-59.5 302.5zM283 737q0 -130 47 -245t127.5 -196t192 -128t237.5 -47 q167 0 305.5 79.5t218.5 221t80 315.5q0 130 -47 245t-128 196.5t-192.5 128.5t-236.5 47q-168 0 -306.5 -80t-218 -221.5t-79.5 -315.5zM539 725q0 190 107.5 294.5t285.5 104.5q128 0 221 -55l-45 -182q-87 61 -160 61q-79 0 -127.5 -53.5t-48.5 -165.5q0 -110 49 -162.5 t133 -52.5q78 0 160 53l43 -161q-103 -64 -246 -64q-171 0 -271.5 99.5t-100.5 283.5z" />
<glyph unicode="&#xaa;" horiz-adv-x="755" d="M133 1036q0 168 87.5 287t221.5 119q93 0 160 -78l12 61h213l-88 -497q-16 -91 -16 -119q0 -23 4 -31h-213q-8 16 -8 41v25q-67 -82 -168 -82q-91 0 -148 71t-57 203zM352 1057q0 -125 84 -125q48 0 92 47l43 246q-43 37 -84 37q-59 0 -97 -59.5t-38 -145.5z" />
<glyph unicode="&#xab;" horiz-adv-x="1146" d="M51 522l350 473h316l-359 -491l191 -455h-285zM502 522l350 473h315l-358 -491l190 -455h-284z" />
<glyph unicode="&#xac;" d="M88 539l45 254h1000l-115 -652h-262l69 398h-737z" />
<glyph unicode="&#xad;" horiz-adv-x="831" d="M98 528l39 220h637l-39 -220h-637z" />
<glyph unicode="&#xae;" horiz-adv-x="1716" d="M125 737q0 161 59.5 302.5t161 242.5t242.5 159t299 58t299 -58t242.5 -159t161 -242.5t59.5 -302.5t-59.5 -302.5t-161 -242.5t-242.5 -159t-299 -58t-299 58t-242.5 159t-161 242.5t-59.5 302.5zM283 737q0 -130 47 -245t127.5 -196t192 -128t237.5 -47t237.5 47 t192 128t127.5 196t47 245q0 174 -79.5 315.5t-218 221.5t-306.5 80t-306.5 -80t-218 -221.5t-79.5 -315.5zM575 358v750h334q148 0 229 -62.5t81 -183.5q0 -147 -127 -207l159 -297h-245l-138 260h-67v-260h-226zM801 770h88q54 0 79 19.5t25 62.5q0 44 -25 64t-79 20h-88 v-166z" />
<glyph unicode="&#xaf;" horiz-adv-x="1024" d="M262 1147l37 211h719l-37 -211h-719z" />
<glyph unicode="&#xb0;" horiz-adv-x="880" d="M190 1159q0 147 101 243.5t256 96.5t255.5 -96.5t100.5 -243.5t-100.5 -243.5t-255.5 -96.5t-256 96.5t-101 243.5zM369 1159q0 -78 50 -129t128 -51t128 51t50 129t-50 129t-128 51t-128 -51t-50 -129z" />
<glyph unicode="&#xb1;" d="M-18 -72l41 228h999l-41 -228h-999zM86 524l41 228h369l51 292h262l-51 -292h368l-41 -228h-368l-51 -293h-263l52 293h-369z" />
<glyph unicode="&#xb2;" horiz-adv-x="737" d="M88 778l27 158q269 179 378 292.5t109 194.5q0 43 -26 68t-78 25q-62 0 -125 -31.5t-115 -83.5l-29 190q54 51 133.5 84t172.5 33q135 0 211.5 -71.5t76.5 -192.5q0 -87 -46 -170t-121 -154.5t-199 -163.5h301l-31 -178h-639z" />
<glyph unicode="&#xb3;" horiz-adv-x="722" d="M70 834l82 170q132 -66 227 -66q78 0 120 30.5t42 82.5q0 102 -179 102q-22 0 -96 -4l27 162q171 0 242 33t71 94q0 86 -110 86q-96 0 -234 -72l-16 184q134 72 280 72q136 0 218.5 -58.5t82.5 -168.5q0 -171 -206 -242q151 -53 151 -199q0 -129 -104 -203.5t-283 -74.5 q-171 0 -315 72z" />
<glyph unicode="&#xb4;" horiz-adv-x="1024" d="M422 1133l221 342h389l-340 -342h-270z" />
<glyph unicode="&#xb5;" horiz-adv-x="1206" d="M-43 -430l260 1474h330l-121 -684q-2 -10 -2 -24q0 -52 21.5 -73t62.5 -21q56 0 106.5 30t108.5 86l121 686h330l-185 -1044h-330l25 139q-154 -164 -342 -164q-21 0 -29 2q0 -141 -41 -407h-315z" />
<glyph unicode="&#xb6;" horiz-adv-x="1124" d="M123 887q0 102 39 191.5t115.5 160.5t202.5 112.5t286 41.5l-162 -926q-226 0 -353.5 115t-127.5 305zM297 39q74 17 122 31t99 37.5t82 53.5t55.5 75.5t34.5 105.5l184 1051h273l-184 -1051q-23 -130 -67.5 -219t-124 -151t-184.5 -99.5t-265 -67.5z" />
<glyph unicode="&#xb7;" horiz-adv-x="616" d="M109 528q0 80 55.5 134.5t140.5 54.5t141 -54.5t56 -134.5t-55.5 -134t-141.5 -54q-85 0 -140.5 54t-55.5 134z" />
<glyph unicode="&#xb8;" horiz-adv-x="1024" d="M82 -358l63 153q91 -53 172 -53q51 0 78 21.5t27 52.5q0 73 -143 94l49 108q329 -9 329 -213q0 -110 -82.5 -170.5t-228.5 -60.5q-136 0 -264 68z" />
<glyph unicode="&#xb9;" horiz-adv-x="532" d="M211 1577l242 115h176l-162 -914h-221l119 670l-127 -57z" />
<glyph unicode="&#xba;" horiz-adv-x="729" d="M137 1059q0 165 104 274t261 109q129 0 209 -76.5t80 -220.5q0 -165 -104 -274t-261 -109q-129 0 -209 76.5t-80 220.5zM356 1053q0 -66 21 -103t61 -37q58 0 95.5 68t37.5 162q0 66 -21 102.5t-61 36.5q-58 0 -95.5 -67.5t-37.5 -161.5z" />
<glyph unicode="&#xbb;" horiz-adv-x="1146" d="M-23 49l359 492l-191 454h285l213 -473l-350 -473h-316zM428 49l358 492l-190 454h285l213 -473l-351 -473h-315z" />
<glyph unicode="&#xbc;" horiz-adv-x="1599" d="M102 0l1174 1475h280l-1173 -1475h-281zM211 1360l242 115h176l-162 -914h-221l119 670l-127 -57zM784 172l29 168l471 573h272l-100 -565h131l-31 -176h-131l-30 -172h-215l30 172h-426zM1034 348h207l57 320z" />
<glyph unicode="&#xbd;" horiz-adv-x="1716" d="M102 0l1174 1475h280l-1173 -1475h-281zM211 1360l242 115h176l-162 -914h-221l119 670l-127 -57zM983 0l27 158q269 179 378 292.5t109 194.5q0 43 -26 67.5t-78 24.5q-62 0 -125 -31t-115 -83l-29 190q54 51 133.5 84t172.5 33q135 0 211.5 -71.5t76.5 -192.5 q0 -87 -46 -170t-121 -154.5t-199 -163.5h301l-31 -178h-639z" />
<glyph unicode="&#xbe;" horiz-adv-x="1748" d="M47 616l82 170q130 -65 227 -65q78 0 120 30.5t42 82.5t-42.5 77t-135.5 25q-22 0 -96 -4l26 162q171 0 242.5 33t71.5 94q0 86 -111 86q-95 0 -233 -72l-17 184q134 72 281 72q136 0 218.5 -58.5t82.5 -168.5q0 -171 -207 -242q152 -53 152 -199q0 -129 -104.5 -203.5 t-283.5 -74.5q-173 0 -315 71zM262 0l1174 1475h280l-1173 -1475h-281zM897 172l29 168l471 573h272l-100 -565h131l-31 -176h-131l-31 -172h-215l31 172h-426zM1147 348h207l57 320z" />
<glyph unicode="&#xbf;" horiz-adv-x="888" d="M-33 -100q0 76 26.5 141.5t69 112t94 87.5t103 77t94 72t69 80t26.5 93v23h253q11 -45 11 -76q0 -56 -23 -106.5t-59.5 -89.5t-81 -75t-89 -70t-81 -67t-59.5 -73t-23 -82q0 -71 59 -108.5t158 -37.5q63 0 174 19l-45 -250q-129 -25 -219 -25q-210 0 -333.5 92.5 t-123.5 262.5zM444 893q0 76 52.5 126t136.5 50t136 -50t52 -126t-52 -126t-136 -50t-136.5 50t-52.5 126z" />
<glyph unicode="&#xc0;" horiz-adv-x="1423" d="M-57 0l745 1475h395l213 -1475h-333l-35 299h-498l-137 -299h-350zM545 547h352l-72 608zM594 1862h344l156 -301h-254z" />
<glyph unicode="&#xc1;" horiz-adv-x="1423" d="M-57 0l745 1475h395l213 -1475h-333l-35 299h-498l-137 -299h-350zM545 547h352l-72 608zM694 1561l215 301h389l-331 -301h-273z" />
<glyph unicode="&#xc2;" horiz-adv-x="1423" d="M-57 0l745 1475h395l213 -1475h-333l-35 299h-498l-137 -299h-350zM502 1561l319 301h258l209 -301h-223l-139 100l-172 -100h-252zM545 547h352l-72 608z" />
<glyph unicode="&#xc3;" horiz-adv-x="1423" d="M-57 0l745 1475h395l213 -1475h-333l-35 299h-498l-137 -299h-350zM500 1561q55 297 266 297q57 0 118.5 -22t112 -44.5t80.5 -22.5q60 0 74 76h188q-56 -297 -266 -297q-57 0 -118.5 22t-112 44t-80.5 22q-60 0 -74 -75h-188zM545 547h352l-72 608z" />
<glyph unicode="&#xc4;" horiz-adv-x="1423" d="M-57 0l745 1475h395l213 -1475h-333l-35 299h-498l-137 -299h-350zM545 547h352l-72 608zM547 1714q0 65 44 108.5t111 43.5t111.5 -43.5t44.5 -108.5t-44.5 -108t-111.5 -43t-111 43t-44 108zM985 1714q0 65 44.5 108.5t111.5 43.5t111 -43.5t44 -108.5t-44 -108 t-111 -43t-111.5 43t-44.5 108z" />
<glyph unicode="&#xc5;" horiz-adv-x="1423" d="M-57 0l727 1438q-19 43 -19 86q0 90 67 150.5t169 60.5q103 0 170 -60.5t67 -150.5q0 -61 -32 -111l204 -1413h-333l-35 299h-498l-137 -299h-350zM545 547h352l-72 608zM797 1524q0 -35 25 -59.5t65 -24.5q41 0 66.5 24.5t25.5 59.5t-25.5 59.5t-66.5 24.5 q-40 0 -65 -24.5t-25 -59.5z" />
<glyph unicode="&#xc6;" horiz-adv-x="1937" d="M-61 0l993 1475h1091l-49 -279h-569l-57 -319h485l-45 -263h-485l-62 -346h576l-48 -268h-909l53 299h-415l-187 -299h-372zM651 547h305l121 684z" />
<glyph unicode="&#xc7;" horiz-adv-x="1232" d="M96 618q0 175 54 333t154 280.5t254.5 195t342.5 72.5q238 0 420 -113l-125 -266q-166 101 -305 101q-112 0 -202 -50.5t-145 -135t-84.5 -189t-29.5 -219.5q0 -195 81.5 -289t219.5 -94q159 0 336 114l33 -270q-173 -97 -361 -111q111 -52 111 -172q0 -110 -82.5 -170.5 t-228.5 -60.5q-137 0 -265 68l64 153q91 -53 172 -53q51 0 77.5 21t26.5 53q0 73 -143 94l39 86q-193 49 -303.5 208t-110.5 414z" />
<glyph unicode="&#xc8;" horiz-adv-x="1208" d="M66 0l260 1475h968l-49 -279h-635l-57 -319h551l-45 -263h-551l-62 -346h641l-47 -268h-974zM528 1862h344l156 -301h-254z" />
<glyph unicode="&#xc9;" horiz-adv-x="1208" d="M66 0l260 1475h968l-49 -279h-635l-57 -319h551l-45 -263h-551l-62 -346h641l-47 -268h-974zM629 1561l215 301h389l-332 -301h-272z" />
<glyph unicode="&#xca;" horiz-adv-x="1208" d="M66 0l260 1475h968l-49 -279h-635l-57 -319h551l-45 -263h-551l-62 -346h641l-47 -268h-974zM436 1561l320 301h258l209 -301h-224l-139 100l-172 -100h-252z" />
<glyph unicode="&#xcb;" horiz-adv-x="1208" d="M66 0l260 1475h968l-49 -279h-635l-57 -319h551l-45 -263h-551l-62 -346h641l-47 -268h-974zM479 1714q0 65 44.5 108.5t111.5 43.5t111.5 -43.5t44.5 -108.5t-44.5 -108t-111.5 -43t-111.5 43t-44.5 108zM918 1714q0 65 44 108.5t111 43.5t111.5 -43.5t44.5 -108.5 t-44.5 -108t-111.5 -43t-111 43t-44 108z" />
<glyph unicode="&#xcc;" horiz-adv-x="673" d="M78 0l260 1475h334l-260 -1475h-334zM219 1862h344l156 -301h-254z" />
<glyph unicode="&#xcd;" horiz-adv-x="673" d="M78 0l260 1475h334l-260 -1475h-334zM319 1561l216 301h389l-332 -301h-273z" />
<glyph unicode="&#xce;" horiz-adv-x="673" d="M78 0l260 1475h334l-260 -1475h-334zM127 1561l319 301h259l208 -301h-223l-139 100l-172 -100h-252z" />
<glyph unicode="&#xcf;" horiz-adv-x="673" d="M78 0l260 1475h334l-260 -1475h-334zM170 1714q0 65 44.5 108.5t111.5 43.5t111 -43.5t44 -108.5t-44 -108t-111 -43t-111.5 43t-44.5 108zM608 1714q0 65 44.5 108.5t111.5 43.5t111.5 -43.5t44.5 -108.5t-44.5 -108t-111.5 -43t-111.5 43t-44.5 108z" />
<glyph unicode="&#xd0;" horiz-adv-x="1472" d="M45 641l37 211h133l111 623h467q297 0 473 -171.5t176 -476.5q0 -131 -33 -252t-101 -225.5t-163.5 -182.5t-228 -122.5t-287.5 -44.5h-563l112 641h-133zM446 268h183q117 0 210 45.5t151 123.5t88 175.5t30 206.5q0 189 -86.5 283t-228.5 94h-183l-61 -344h278 l-36 -211h-279z" />
<glyph unicode="&#xd1;" horiz-adv-x="1497" d="M66 0l260 1475h350l364 -889l158 889h307l-260 -1475h-278l-416 1014l-178 -1014h-307zM537 1561q55 297 266 297q57 0 118.5 -22t112 -44.5t80.5 -22.5q60 0 74 76h188q-56 -297 -266 -297q-57 0 -118.5 22t-112 44t-80.5 22q-60 0 -74 -75h-188z" />
<glyph unicode="&#xd2;" horiz-adv-x="1480" d="M98 649q0 175 55.5 331t152.5 270.5t237.5 181.5t302.5 67q132 0 243.5 -45t193.5 -129t127.5 -212t45.5 -288q0 -175 -55 -331t-152 -270.5t-237.5 -181.5t-302.5 -67q-132 0 -244 45t-193.5 129t-127.5 212.5t-46 287.5zM432 649q0 -197 78 -300t213 -103q118 0 210 77 t140.5 206.5t48.5 287.5q0 197 -78 300.5t-213 103.5q-118 0 -210 -77.5t-140.5 -207t-48.5 -287.5zM602 1862h344l156 -301h-254z" />
<glyph unicode="&#xd3;" horiz-adv-x="1480" d="M98 649q0 175 55.5 331t152.5 270.5t237.5 181.5t302.5 67q132 0 243.5 -45t193.5 -129t127.5 -212t45.5 -288q0 -175 -55 -331t-152 -270.5t-237.5 -181.5t-302.5 -67q-132 0 -244 45t-193.5 129t-127.5 212.5t-46 287.5zM432 649q0 -197 78 -300t213 -103q118 0 210 77 t140.5 206.5t48.5 287.5q0 197 -78 300.5t-213 103.5q-118 0 -210 -77.5t-140.5 -207t-48.5 -287.5zM702 1561l216 301h389l-332 -301h-273z" />
<glyph unicode="&#xd4;" horiz-adv-x="1480" d="M98 649q0 175 55.5 331t152.5 270.5t237.5 181.5t302.5 67q132 0 243.5 -45t193.5 -129t127.5 -212t45.5 -288q0 -175 -55 -331t-152 -270.5t-237.5 -181.5t-302.5 -67q-132 0 -244 45t-193.5 129t-127.5 212.5t-46 287.5zM432 649q0 -197 78 -300t213 -103q118 0 210 77 t140.5 206.5t48.5 287.5q0 197 -78 300.5t-213 103.5q-118 0 -210 -77.5t-140.5 -207t-48.5 -287.5zM510 1561l319 301h258l209 -301h-223l-139 100l-172 -100h-252z" />
<glyph unicode="&#xd5;" horiz-adv-x="1480" d="M98 649q0 175 55.5 331t152.5 270.5t237.5 181.5t302.5 67q132 0 243.5 -45t193.5 -129t127.5 -212t45.5 -288q0 -175 -55 -331t-152 -270.5t-237.5 -181.5t-302.5 -67q-132 0 -244 45t-193.5 129t-127.5 212.5t-46 287.5zM432 649q0 -197 78 -300t213 -103q118 0 210 77 t140.5 206.5t48.5 287.5q0 197 -78 300.5t-213 103.5q-118 0 -210 -77.5t-140.5 -207t-48.5 -287.5zM504 1561q55 297 266 297q57 0 118.5 -22t112 -44.5t80.5 -22.5q60 0 74 76h188q-56 -297 -266 -297q-57 0 -118.5 22t-112 44t-80.5 22q-60 0 -74 -75h-188z" />
<glyph unicode="&#xd6;" horiz-adv-x="1480" d="M98 649q0 175 55.5 331t152.5 270.5t237.5 181.5t302.5 67q132 0 243.5 -45t193.5 -129t127.5 -212t45.5 -288q0 -175 -55 -331t-152 -270.5t-237.5 -181.5t-302.5 -67q-132 0 -244 45t-193.5 129t-127.5 212.5t-46 287.5zM432 649q0 -197 78 -300t213 -103q118 0 210 77 t140.5 206.5t48.5 287.5q0 197 -78 300.5t-213 103.5q-118 0 -210 -77.5t-140.5 -207t-48.5 -287.5zM555 1714q0 65 44.5 108.5t111.5 43.5t111 -43.5t44 -108.5t-44 -108t-111 -43t-111.5 43t-44.5 108zM993 1714q0 65 44.5 108.5t111.5 43.5t111.5 -43.5t44.5 -108.5 t-44.5 -108t-111.5 -43t-111.5 43t-44.5 108z" />
<glyph unicode="&#xd7;" d="M53 236l357 303l-252 309l200 156l244 -302l354 302l162 -195l-356 -303l252 -309l-201 -156l-244 301l-354 -301z" />
<glyph unicode="&#xd8;" horiz-adv-x="1480" d="M-43 115l209 190q-68 152 -68 344q0 175 55.5 331t152.5 270.5t237.5 181.5t302.5 67q271 0 436 -174l188 174l127 -139l-211 -193q70 -146 70 -342q0 -175 -55 -331t-152 -270.5t-237.5 -181.5t-302.5 -67q-271 0 -437 172l-188 -172zM424 649q0 -53 6 -102l623 571 q-76 111 -222 111q-120 0 -214 -78.5t-143.5 -210t-49.5 -291.5zM498 352q76 -114 225 -114q120 0 213.5 77.5t143.5 209.5t50 294q0 60 -8 107z" />
<glyph unicode="&#xd9;" horiz-adv-x="1411" d="M125 414q0 90 16 178l156 883h336l-164 -930q-8 -49 -8 -94q0 -108 51 -152.5t150 -44.5q119 0 193.5 66t102.5 225l164 930h324l-174 -986q-46 -261 -202 -387.5t-435 -126.5q-247 0 -378.5 103.5t-131.5 335.5zM588 1862h344l155 -301h-253z" />
<glyph unicode="&#xda;" horiz-adv-x="1411" d="M125 414q0 90 16 178l156 883h336l-164 -930q-8 -49 -8 -94q0 -108 51 -152.5t150 -44.5q119 0 193.5 66t102.5 225l164 930h324l-174 -986q-46 -261 -202 -387.5t-435 -126.5q-247 0 -378.5 103.5t-131.5 335.5zM688 1561l215 301h389l-331 -301h-273z" />
<glyph unicode="&#xdb;" horiz-adv-x="1411" d="M125 414q0 90 16 178l156 883h336l-164 -930q-8 -49 -8 -94q0 -108 51 -152.5t150 -44.5q119 0 193.5 66t102.5 225l164 930h324l-174 -986q-46 -261 -202 -387.5t-435 -126.5q-247 0 -378.5 103.5t-131.5 335.5zM496 1561l319 301h258l209 -301h-223l-139 100l-172 -100 h-252z" />
<glyph unicode="&#xdc;" horiz-adv-x="1411" d="M125 414q0 90 16 178l156 883h336l-164 -930q-8 -49 -8 -94q0 -108 51 -152.5t150 -44.5q119 0 193.5 66t102.5 225l164 930h324l-174 -986q-46 -261 -202 -387.5t-435 -126.5q-247 0 -378.5 103.5t-131.5 335.5zM541 1714q0 65 44 108.5t111 43.5t111.5 -43.5 t44.5 -108.5t-44.5 -108t-111.5 -43t-111 43t-44 108zM979 1714q0 65 44.5 108.5t111.5 43.5t111 -43.5t44 -108.5t-44 -108t-111 -43t-111.5 43t-44.5 108z" />
<glyph unicode="&#xdd;" horiz-adv-x="1329" d="M186 1475h326l203 -576l405 576h359l-635 -881l-105 -594h-333l104 594zM653 1561l215 301h389l-331 -301h-273z" />
<glyph unicode="&#xde;" horiz-adv-x="1318" d="M66 0l260 1475h329l-37 -205h177q248 0 387 -112t139 -333q0 -237 -163.5 -371.5t-461.5 -134.5h-243l-58 -319h-329zM500 582h196q147 0 221 60t74 169q0 186 -223 186h-197z" />
<glyph unicode="&#xdf;" horiz-adv-x="1294" d="M33 0l186 1057q38 215 178 328.5t365 113.5q98 0 180.5 -22.5t145.5 -66.5t98 -115t35 -162q0 -126 -67 -216t-198 -135q258 -87 258 -362q0 -201 -134.5 -323t-354.5 -122q-144 0 -256 45l78 222q88 -31 145 -31q87 0 140 58t53 163q0 230 -258 230l43 237 q99 0 168 52.5t69 152.5q0 80 -43 115.5t-108 35.5q-171 0 -215 -245l-179 -1010h-329z" />
<glyph unicode="&#xe0;" horiz-adv-x="1185" d="M51 406q0 181 65.5 332.5t183 241t261.5 89.5q79 0 139.5 -31t118.5 -104l21 110h315l-143 -811q-25 -139 -25 -192q0 -33 4 -41h-317q-17 34 -17 63q0 23 5 46q-118 -134 -281 -134q-149 0 -239.5 110t-90.5 321zM381 440q0 -213 141 -213q92 0 174 86l76 420 q-72 66 -145 66q-111 0 -178.5 -102t-67.5 -257zM420 1475h344l145 -342h-250z" />
<glyph unicode="&#xe1;" horiz-adv-x="1185" d="M51 406q0 181 65.5 332.5t183 241t261.5 89.5q79 0 139.5 -31t118.5 -104l21 110h315l-143 -811q-25 -139 -25 -192q0 -33 4 -41h-317q-17 34 -17 63q0 23 5 46q-118 -134 -281 -134q-149 0 -239.5 110t-90.5 321zM381 440q0 -213 141 -213q92 0 174 86l76 420 q-72 66 -145 66q-111 0 -178.5 -102t-67.5 -257zM502 1133l221 342h389l-340 -342h-270z" />
<glyph unicode="&#xe2;" horiz-adv-x="1185" d="M51 406q0 181 65.5 332.5t183 241t261.5 89.5q79 0 139.5 -31t118.5 -104l21 110h315l-143 -811q-25 -139 -25 -192q0 -33 4 -41h-317q-17 34 -17 63q0 23 5 46q-118 -134 -281 -134q-149 0 -239.5 110t-90.5 321zM319 1133l326 342h254l205 -342h-221l-133 143 l-181 -143h-250zM381 440q0 -213 141 -213q92 0 174 86l76 420q-72 66 -145 66q-111 0 -178.5 -102t-67.5 -257z" />
<glyph unicode="&#xe3;" horiz-adv-x="1185" d="M51 406q0 181 65.5 332.5t183 241t261.5 89.5q79 0 139.5 -31t118.5 -104l21 110h315l-143 -811q-25 -139 -25 -192q0 -33 4 -41h-317q-17 34 -17 63q0 23 5 46q-118 -134 -281 -134q-149 0 -239.5 110t-90.5 321zM319 1145q52 307 261 307q48 0 98 -17t84 -37.5 t71 -37.5t62 -17q31 0 51.5 25.5t28.5 71.5h184q-52 -307 -260 -307q-61 0 -123 27t-111.5 54t-80.5 27q-64 0 -80 -96h-185zM381 440q0 -213 141 -213q92 0 174 86l76 420q-72 66 -145 66q-111 0 -178.5 -102t-67.5 -257z" />
<glyph unicode="&#xe4;" horiz-adv-x="1185" d="M51 406q0 181 65.5 332.5t183 241t261.5 89.5q79 0 139.5 -31t118.5 -104l21 110h315l-143 -811q-25 -139 -25 -192q0 -33 4 -41h-317q-17 34 -17 63q0 23 5 46q-118 -134 -281 -134q-149 0 -239.5 110t-90.5 321zM365 1288q0 65 44 108.5t111 43.5t111.5 -43.5 t44.5 -108.5t-44.5 -108t-111.5 -43t-111 43t-44 108zM381 440q0 -213 141 -213q92 0 174 86l76 420q-72 66 -145 66q-111 0 -178.5 -102t-67.5 -257zM803 1288q0 65 44 108.5t111 43.5t111.5 -43.5t44.5 -108.5t-44.5 -108t-111.5 -43t-111 43t-44 108z" />
<glyph unicode="&#xe5;" horiz-adv-x="1185" d="M51 406q0 181 65.5 332.5t183 241t261.5 89.5q79 0 139.5 -31t118.5 -104l21 110h315l-143 -811q-25 -139 -25 -192q0 -33 4 -41h-317q-17 34 -17 63q0 23 5 46q-118 -134 -281 -134q-149 0 -239.5 110t-90.5 321zM381 440q0 -213 141 -213q92 0 174 86l76 420 q-72 66 -145 66q-111 0 -178.5 -102t-67.5 -257zM530 1341q0 90 62.5 150.5t155.5 60.5t155 -60.5t62 -150.5t-62 -150.5t-155 -60.5t-155.5 60.5t-62.5 150.5zM662 1341q0 -35 23.5 -59.5t62.5 -24.5t62.5 24.5t23.5 59.5t-23.5 59.5t-62.5 24.5t-62.5 -24.5t-23.5 -59.5z " />
<glyph unicode="&#xe6;" horiz-adv-x="1716" d="M16 279q0 171 135.5 272.5t383.5 101.5q66 0 151 -10l2 14q8 46 8 66q0 50 -34 72t-107 22q-130 0 -338 -82l-18 246q213 88 440 88q211 0 303 -92q148 92 336 92q190 0 294.5 -88.5t104.5 -226.5q0 -158 -144 -253t-439 -95q-70 0 -101 2q9 -104 62.5 -151.5 t156.5 -47.5q151 0 314 78l20 -234q-181 -78 -391 -78q-277 0 -401 154q-80 -71 -184.5 -112.5t-215.5 -41.5q-154 0 -246 79.5t-92 224.5zM338 317q0 -51 33 -78.5t88 -27.5q101 0 217 88q-14 57 -14 135v27q-57 8 -105 8q-103 0 -161 -42.5t-58 -109.5zM1008 596h67 q299 0 299 139q0 46 -30.5 77.5t-88.5 31.5q-84 0 -151.5 -67.5t-95.5 -180.5z" />
<glyph unicode="&#xe7;" horiz-adv-x="919" d="M51 442q0 129 41.5 243t117.5 199.5t191 135t254 49.5q160 0 297 -74l-104 -239q-94 61 -180 61q-132 0 -210.5 -105.5t-78.5 -260.5q0 -119 47.5 -176.5t132.5 -57.5q111 0 215 68l19 -240q-87 -49 -224 -65q115 -52 115 -175q0 -110 -82.5 -170.5t-228.5 -60.5 q-136 0 -264 68l63 153q91 -53 172 -53q51 0 78 21.5t27 52.5q0 73 -144 94l39 86q-137 39 -215 152.5t-78 293.5z" />
<glyph unicode="&#xe8;" horiz-adv-x="1105" d="M51 434q0 178 75.5 322t217.5 228.5t324 84.5q190 0 294.5 -88.5t104.5 -226.5q0 -158 -144.5 -253t-439.5 -95q-69 0 -100 2q9 -104 62.5 -151.5t156.5 -47.5q150 0 313 78l21 -234q-181 -78 -391 -78q-238 0 -366 117t-128 342zM397 596h68q299 0 299 139 q0 46 -30.5 77.5t-88.5 31.5q-84 0 -152 -67.5t-96 -180.5zM397 1475h344l146 -342h-250z" />
<glyph unicode="&#xe9;" horiz-adv-x="1105" d="M51 434q0 178 75.5 322t217.5 228.5t324 84.5q190 0 294.5 -88.5t104.5 -226.5q0 -158 -144.5 -253t-439.5 -95q-69 0 -100 2q9 -104 62.5 -151.5t156.5 -47.5q150 0 313 78l21 -234q-181 -78 -391 -78q-238 0 -366 117t-128 342zM397 596h68q299 0 299 139 q0 46 -30.5 77.5t-88.5 31.5q-84 0 -152 -67.5t-96 -180.5zM461 1133l221 342h389l-340 -342h-270z" />
<glyph unicode="&#xea;" horiz-adv-x="1105" d="M51 434q0 178 75.5 322t217.5 228.5t324 84.5q190 0 294.5 -88.5t104.5 -226.5q0 -158 -144.5 -253t-439.5 -95q-69 0 -100 2q9 -104 62.5 -151.5t156.5 -47.5q150 0 313 78l21 -234q-181 -78 -391 -78q-238 0 -366 117t-128 342zM281 1133l325 342h254l205 -342h-221 l-133 143l-181 -143h-249zM397 596h68q299 0 299 139q0 46 -30.5 77.5t-88.5 31.5q-84 0 -152 -67.5t-96 -180.5z" />
<glyph unicode="&#xeb;" horiz-adv-x="1105" d="M51 434q0 178 75.5 322t217.5 228.5t324 84.5q190 0 294.5 -88.5t104.5 -226.5q0 -158 -144.5 -253t-439.5 -95q-69 0 -100 2q9 -104 62.5 -151.5t156.5 -47.5q150 0 313 78l21 -234q-181 -78 -391 -78q-238 0 -366 117t-128 342zM326 1288q0 65 44 108.5t111 43.5 t111.5 -43.5t44.5 -108.5t-44.5 -108t-111.5 -43t-111 43t-44 108zM397 596h68q299 0 299 139q0 46 -30.5 77.5t-88.5 31.5q-84 0 -152 -67.5t-96 -180.5zM764 1288q0 65 44.5 108.5t111.5 43.5t111 -43.5t44 -108.5t-44 -108t-111 -43t-111.5 43t-44.5 108z" />
<glyph unicode="&#xec;" horiz-adv-x="606" d="M45 0l184 1044h330l-184 -1044h-330zM117 1475h344l145 -342h-250z" />
<glyph unicode="&#xed;" horiz-adv-x="606" d="M45 0l184 1044h330l-184 -1044h-330zM211 1133l221 342h389l-340 -342h-270z" />
<glyph unicode="&#xee;" horiz-adv-x="606" d="M16 1133l326 342h254l205 -342h-221l-134 143l-180 -143h-250zM45 0l184 1044h330l-184 -1044h-330z" />
<glyph unicode="&#xef;" horiz-adv-x="606" d="M45 0l184 1044h330l-184 -1044h-330zM61 1288q0 65 44.5 108.5t111.5 43.5t111.5 -43.5t44.5 -108.5t-44.5 -108t-111.5 -43t-111.5 43t-44.5 108zM500 1288q0 65 44 108.5t111 43.5t111.5 -43.5t44.5 -108.5t-44.5 -108t-111.5 -43t-111 43t-44 108z" />
<glyph unicode="&#xf0;" horiz-adv-x="1148" d="M47 434q0 160 65 290.5t180 205t255 74.5q80 0 128 -22.5t89 -61.5q-22 119 -62 213l-141 -50l-57 164l121 41q-24 41 -68 107l213 137q56 -62 117 -152l145 52l60 -164l-121 -43q119 -268 119 -551q0 -167 -44.5 -300.5t-123.5 -220t-185 -132.5t-231 -46 q-96 0 -177.5 27.5t-145.5 82.5t-100 144.5t-36 204.5zM377 426q0 -215 153 -215q103 0 166.5 94.5t63.5 237.5q0 217 -154 217q-102 0 -165.5 -95t-63.5 -239z" />
<glyph unicode="&#xf1;" horiz-adv-x="1183" d="M33 0l184 1044h330l-25 -139q154 164 344 164q51 0 93.5 -12.5t80.5 -40t60 -80t22 -125.5q0 -55 -8 -102l-125 -709h-330l119 674q2 14 2 26q0 93 -84 93q-95 0 -215 -117l-119 -676h-329zM317 1145q52 307 261 307q48 0 98 -17t84 -37.5t71 -37.5t62 -17 q31 0 51.5 25.5t28.5 71.5h184q-52 -307 -260 -307q-61 0 -123 27t-111.5 54t-80.5 27q-64 0 -80 -96h-185z" />
<glyph unicode="&#xf2;" horiz-adv-x="1148" d="M51 451q0 173 74 314.5t208 222.5t302 81q99 0 182.5 -29.5t146.5 -87t98.5 -149t35.5 -209.5q0 -174 -74 -315t-208 -222.5t-302 -81.5q-99 0 -182.5 29.5t-146.5 87t-98.5 149.5t-35.5 210zM369 1475h344l145 -342h-250zM381 446q0 -120 39.5 -179.5t111.5 -59.5 q105 0 170.5 111t65.5 272q0 120 -40 179.5t-112 59.5q-105 0 -170 -111t-65 -272z" />
<glyph unicode="&#xf3;" horiz-adv-x="1148" d="M51 451q0 173 74 314.5t208 222.5t302 81q99 0 182.5 -29.5t146.5 -87t98.5 -149t35.5 -209.5q0 -174 -74 -315t-208 -222.5t-302 -81.5q-99 0 -182.5 29.5t-146.5 87t-98.5 149.5t-35.5 210zM381 446q0 -120 39.5 -179.5t111.5 -59.5q105 0 170.5 111t65.5 272 q0 120 -40 179.5t-112 59.5q-105 0 -170 -111t-65 -272zM463 1133l221 342h389l-340 -342h-270z" />
<glyph unicode="&#xf4;" horiz-adv-x="1148" d="M51 451q0 173 74 314.5t208 222.5t302 81q99 0 182.5 -29.5t146.5 -87t98.5 -149t35.5 -209.5q0 -174 -74 -315t-208 -222.5t-302 -81.5q-99 0 -182.5 29.5t-146.5 87t-98.5 149.5t-35.5 210zM268 1133l326 342h254l205 -342h-222l-133 143l-180 -143h-250zM381 446 q0 -120 39.5 -179.5t111.5 -59.5q105 0 170.5 111t65.5 272q0 120 -40 179.5t-112 59.5q-105 0 -170 -111t-65 -272z" />
<glyph unicode="&#xf5;" horiz-adv-x="1148" d="M51 451q0 173 74 314.5t208 222.5t302 81q99 0 182.5 -29.5t146.5 -87t98.5 -149t35.5 -209.5q0 -174 -74 -315t-208 -222.5t-302 -81.5q-99 0 -182.5 29.5t-146.5 87t-98.5 149.5t-35.5 210zM268 1145q52 307 260 307q48 0 98.5 -17t84.5 -37.5t71 -37.5t62 -17 q31 0 51.5 25.5t28.5 71.5h184q-52 -307 -260 -307q-61 0 -123.5 27t-112 54t-80.5 27q-63 0 -79 -96h-185zM381 446q0 -120 39.5 -179.5t111.5 -59.5q105 0 170.5 111t65.5 272q0 120 -40 179.5t-112 59.5q-105 0 -170 -111t-65 -272z" />
<glyph unicode="&#xf6;" horiz-adv-x="1148" d="M51 451q0 173 74 314.5t208 222.5t302 81q99 0 182.5 -29.5t146.5 -87t98.5 -149t35.5 -209.5q0 -174 -74 -315t-208 -222.5t-302 -81.5q-99 0 -182.5 29.5t-146.5 87t-98.5 149.5t-35.5 210zM313 1288q0 65 44.5 108.5t111.5 43.5t111.5 -43.5t44.5 -108.5t-44.5 -108 t-111.5 -43t-111.5 43t-44.5 108zM381 446q0 -120 39.5 -179.5t111.5 -59.5q105 0 170.5 111t65.5 272q0 120 -40 179.5t-112 59.5q-105 0 -170 -111t-65 -272zM752 1288q0 65 44 108.5t111 43.5t111.5 -43.5t44.5 -108.5t-44.5 -108t-111.5 -43t-111 43t-44 108z" />
<glyph unicode="&#xf7;" d="M63 395l46 254h999l-45 -254h-1000zM346 143q0 71 46.5 114.5t125.5 43.5q81 0 126.5 -43t45.5 -115q0 -73 -45.5 -116t-126.5 -43q-79 0 -125.5 43.5t-46.5 115.5zM481 901q0 73 45.5 116.5t126.5 43.5q79 0 125.5 -44t46.5 -116q0 -71 -46.5 -114.5t-125.5 -43.5 q-81 0 -126.5 43t-45.5 115z" />
<glyph unicode="&#xf8;" horiz-adv-x="1148" d="M-45 49l154 144q-58 110 -58 258q0 173 74 314.5t208 222.5t302 81q183 0 305 -96l145 135l109 -113l-154 -145q58 -107 58 -256q0 -174 -74 -315t-208 -222.5t-302 -81.5q-186 0 -307 97l-144 -135zM362 430l379 354q-43 64 -125 64q-113 0 -183.5 -116t-70.5 -286v-16z M403 256q45 -68 127 -68q115 0 185.5 115.5t70.5 286.5v22z" />
<glyph unicode="&#xf9;" horiz-adv-x="1183" d="M59 233q0 51 9 103l125 708h329l-121 -684q-2 -14 -2 -26q0 -51 22 -71.5t62 -20.5q96 0 215 116l121 686h330l-184 -1044h-330l24 139q-154 -164 -344 -164q-51 0 -93.5 12.5t-80.5 40t-60 80t-22 125.5zM393 1475h344l146 -342h-250z" />
<glyph unicode="&#xfa;" horiz-adv-x="1183" d="M59 233q0 51 9 103l125 708h329l-121 -684q-2 -14 -2 -26q0 -51 22 -71.5t62 -20.5q96 0 215 116l121 686h330l-184 -1044h-330l24 139q-154 -164 -344 -164q-51 0 -93.5 12.5t-80.5 40t-60 80t-22 125.5zM487 1133l222 342h389l-340 -342h-271z" />
<glyph unicode="&#xfb;" horiz-adv-x="1183" d="M59 233q0 51 9 103l125 708h329l-121 -684q-2 -14 -2 -26q0 -51 22 -71.5t62 -20.5q96 0 215 116l121 686h330l-184 -1044h-330l24 139q-154 -164 -344 -164q-51 0 -93.5 12.5t-80.5 40t-60 80t-22 125.5zM293 1133l325 342h254l205 -342h-221l-133 143l-180 -143h-250z " />
<glyph unicode="&#xfc;" horiz-adv-x="1183" d="M59 233q0 51 9 103l125 708h329l-121 -684q-2 -14 -2 -26q0 -51 22 -71.5t62 -20.5q96 0 215 116l121 686h330l-184 -1044h-330l24 139q-154 -164 -344 -164q-51 0 -93.5 12.5t-80.5 40t-60 80t-22 125.5zM338 1288q0 65 44.5 108.5t111.5 43.5t111 -43.5t44 -108.5 t-44 -108t-111 -43t-111.5 43t-44.5 108zM776 1288q0 65 44.5 108.5t111.5 43.5t111 -43.5t44 -108.5t-44 -108t-111 -43t-111.5 43t-44.5 108z" />
<glyph unicode="&#xfd;" horiz-adv-x="1042" d="M-106 -432l45 256q55 -10 108 -10q88 0 144 42.5t120 168.5h-86l-135 1019h326l65 -765l324 765h332l-516 -1067q-84 -172 -154.5 -258.5t-161 -123.5t-235.5 -37q-88 0 -176 10zM436 1133l221 342h390l-340 -342h-271z" />
<glyph unicode="&#xfe;" horiz-adv-x="1202" d="M-43 -430l336 1905h330l-97 -539q120 133 281 133q154 0 248 -115t94 -329q0 -178 -66 -327t-183.5 -236t-262.5 -87q-148 0 -258 121l-92 -526h-330zM414 293q74 -66 155 -66q114 0 182 101t68 252q0 219 -149 219q-92 0 -183 -88z" />
<glyph unicode="&#xff;" horiz-adv-x="1042" d="M-106 -432l45 256q55 -10 108 -10q88 0 144 42.5t120 168.5h-86l-135 1019h326l65 -765l324 765h332l-516 -1067q-84 -172 -154.5 -258.5t-161 -123.5t-235.5 -37q-88 0 -176 10zM279 1288q0 65 44 108.5t111 43.5t111.5 -43.5t44.5 -108.5t-44.5 -108t-111.5 -43 t-111 43t-44 108zM717 1288q0 65 44 108.5t111 43.5t111.5 -43.5t44.5 -108.5t-44.5 -108t-111.5 -43t-111 43t-44 108z" />
<glyph unicode="&#x152;" horiz-adv-x="1914" d="M96 618q0 176 54.5 334t155 280.5t257.5 194.5t348 72q112 0 217 -24h873l-49 -279h-570l-57 -319h485l-45 -263h-485l-61 -346h575l-47 -268h-850q-121 -25 -213 -25q-268 0 -428 167t-160 476zM430 631q0 -197 82.5 -292t224.5 -95q66 0 148 20l164 934q-80 23 -150 23 q-92 0 -170 -33t-132.5 -89t-92.5 -132t-56 -161t-18 -175z" />
<glyph unicode="&#x153;" horiz-adv-x="1816" d="M51 451q0 173 74 314.5t208 222.5t302 81q220 0 346 -135q167 135 397 135q190 0 295 -88.5t105 -226.5q0 -158 -144.5 -253t-439.5 -95q-69 0 -100 2q9 -104 62.5 -151.5t156.5 -47.5q150 0 313 78l21 -234q-181 -78 -392 -78q-249 0 -376 127q-152 -127 -365 -127 q-99 0 -182.5 29.5t-146.5 87t-98.5 149.5t-35.5 210zM381 446q0 -120 39.5 -179.5t111.5 -59.5q105 0 170.5 111t65.5 272q0 120 -40 179.5t-112 59.5q-105 0 -170 -111t-65 -272zM1108 596h68q299 0 299 139q0 46 -30.5 77.5t-88.5 31.5q-84 0 -152 -67.5t-96 -180.5z" />
<glyph unicode="&#x178;" horiz-adv-x="1329" d="M186 1475h326l203 -576l405 576h359l-635 -881l-105 -594h-333l104 594zM500 1714q0 65 44 108.5t111 43.5t111.5 -43.5t44.5 -108.5t-44.5 -108t-111.5 -43t-111 43t-44 108zM938 1714q0 65 44.5 108.5t111.5 43.5t111 -43.5t44 -108.5t-44 -108t-111 -43t-111.5 43 t-44.5 108z" />
<glyph unicode="&#x2c6;" horiz-adv-x="1024" d="M227 1133l326 342h254l205 -342h-221l-134 143l-180 -143h-250z" />
<glyph unicode="&#x2dc;" horiz-adv-x="1024" d="M227 1145q52 307 260 307q48 0 98.5 -17t84.5 -37.5t71 -37.5t62 -17q31 0 51.5 25.5t28.5 71.5h184q-52 -307 -260 -307q-61 0 -123 27t-111.5 54t-80.5 27q-64 0 -80 -96h-185z" />
<glyph unicode="&#x2000;" horiz-adv-x="933" />
<glyph unicode="&#x2001;" horiz-adv-x="1866" />
<glyph unicode="&#x2002;" horiz-adv-x="933" />
<glyph unicode="&#x2003;" horiz-adv-x="1866" />
<glyph unicode="&#x2004;" horiz-adv-x="622" />
<glyph unicode="&#x2005;" horiz-adv-x="466" />
<glyph unicode="&#x2006;" horiz-adv-x="311" />
<glyph unicode="&#x2007;" horiz-adv-x="311" />
<glyph unicode="&#x2008;" horiz-adv-x="233" />
<glyph unicode="&#x2009;" horiz-adv-x="373" />
<glyph unicode="&#x200a;" horiz-adv-x="103" />
<glyph unicode="&#x2010;" horiz-adv-x="831" d="M98 528l39 220h637l-39 -220h-637z" />
<glyph unicode="&#x2011;" horiz-adv-x="831" d="M98 528l39 220h637l-39 -220h-637z" />
<glyph unicode="&#x2012;" horiz-adv-x="831" d="M98 528l39 220h637l-39 -220h-637z" />
<glyph unicode="&#x2013;" horiz-adv-x="1024" d="M78 502l47 272h860l-47 -272h-860z" />
<glyph unicode="&#x2014;" horiz-adv-x="2048" d="M78 502l47 272h1884l-47 -272h-1884z" />
<glyph unicode="&#x2018;" horiz-adv-x="583" d="M150 1030q0 48 11 92.5t39.5 93.5t74 94.5t119 94t169.5 92.5l113 -154q-222 -97 -279 -215q72 -8 117 -56t45 -118q0 -77 -51.5 -127.5t-136.5 -50.5q-97 0 -159 67.5t-62 186.5z" />
<glyph unicode="&#x2019;" horiz-adv-x="583" d="M121 932q221 97 278 215q-72 8 -116.5 56t-44.5 118q0 77 51.5 127.5t136.5 50.5q97 0 159 -67.5t62 -186.5q0 -61 -19 -116.5t-63.5 -116t-128 -120t-203.5 -114.5z" />
<glyph unicode="&#x201a;" horiz-adv-x="583" d="M-80 -215q222 97 279 215q-72 8 -117 56t-45 118q0 77 51.5 127.5t136.5 50.5q97 0 159 -67.5t62 -186.5q0 -48 -11 -92.5t-39.5 -93.5t-74 -94.5t-119 -94t-169.5 -92.5z" />
<glyph unicode="&#x201c;" horiz-adv-x="1064" d="M150 1030q0 48 11 92.5t39.5 93.5t74 94.5t119 94t169.5 92.5l113 -154q-222 -97 -279 -215q72 -8 117 -56t45 -118q0 -77 -51.5 -127.5t-136.5 -50.5q-97 0 -159 67.5t-62 186.5zM631 1030q0 48 11 92.5t39.5 93.5t74 94.5t119 94t169.5 92.5l113 -154 q-221 -97 -278 -215q72 -8 116.5 -56t44.5 -118q0 -77 -51.5 -127.5t-136.5 -50.5q-97 0 -159 67.5t-62 186.5z" />
<glyph unicode="&#x201d;" horiz-adv-x="1064" d="M121 932q221 97 278 215q-72 8 -116.5 56t-44.5 118q0 77 51.5 127.5t136.5 50.5q97 0 159 -67.5t62 -186.5q0 -61 -19 -116.5t-63.5 -116t-128 -120t-203.5 -114.5zM602 932q222 97 279 215q-72 8 -117 56t-45 118q0 77 51.5 127.5t136.5 50.5q97 0 159 -67.5t62 -186.5 q0 -48 -11 -92.5t-39.5 -93.5t-74 -94.5t-119 -94t-169.5 -92.5z" />
<glyph unicode="&#x201e;" horiz-adv-x="1064" d="M-80 -215q222 97 279 215q-72 8 -117 56t-45 118q0 77 51.5 127.5t136.5 50.5q97 0 159 -67.5t62 -186.5q0 -48 -11 -92.5t-39.5 -93.5t-74 -94.5t-119 -94t-169.5 -92.5zM401 -215q222 97 279 215q-72 8 -117 56t-45 118q0 76 52 127t137 51q97 0 159 -67.5t62 -186.5 q0 -61 -19 -116.5t-63.5 -116t-128 -120t-203.5 -114.5z" />
<glyph unicode="&#x2022;" horiz-adv-x="946" d="M225 719q0 120 79.5 198t199.5 78t199 -78t79 -198t-79 -198.5t-199 -78.5t-199.5 78.5t-79.5 198.5z" />
<glyph unicode="&#x2026;" horiz-adv-x="1640" d="M45 164q0 80 55.5 134t141.5 54q85 0 140.5 -54t55.5 -134t-55.5 -134.5t-140.5 -54.5t-141 54.5t-56 134.5zM557 164q0 80 55.5 134t141.5 54q85 0 140.5 -54t55.5 -134t-55.5 -134.5t-140.5 -54.5t-141 54.5t-56 134.5zM1069 164q0 80 55.5 134t141.5 54 q85 0 140.5 -54t55.5 -134t-55.5 -134.5t-140.5 -54.5t-141 54.5t-56 134.5z" />
<glyph unicode="&#x202f;" horiz-adv-x="373" />
<glyph unicode="&#x2039;" horiz-adv-x="696" d="M51 522l350 473h316l-359 -491l191 -455h-285z" />
<glyph unicode="&#x203a;" horiz-adv-x="696" d="M-23 49l359 492l-191 454h285l213 -473l-350 -473h-316z" />
<glyph unicode="&#x205f;" horiz-adv-x="466" />
<glyph unicode="&#x20ac;" horiz-adv-x="1275" d="M29 473l37 199h178q4 77 10 116h-168l37 199h182q85 233 264 372.5t426 139.5q207 0 359 -104l-121 -254q-68 46 -128 69t-128 23q-116 0 -202.5 -65.5t-139.5 -180.5h403l-34 -199h-426q-14 -88 -15 -116h418l-35 -199h-373q41 -246 242 -246q138 0 285 101l30 -254 q-170 -99 -364 -99q-213 0 -349.5 128t-166.5 370h-221z" />
<glyph unicode="&#x2122;" horiz-adv-x="1636" d="M164 1311l29 164h581l-29 -164h-184l-94 -533h-213l94 533h-184zM684 778l190 697h263l28 -330q6 -77 6 -135h5q20 55 57 131l164 334h256l-60 -697h-204l38 314q9 78 27 168h-4q-18 -58 -64 -152l-161 -330h-185l-36 322q-13 102 -13 160h-4q-5 -38 -37 -175l-71 -307 h-195z" />
<glyph unicode="&#xe000;" horiz-adv-x="1044" d="M0 0v1044h1044v-1044h-1044z" />
<glyph unicode="&#xfb01;" horiz-adv-x="1265" d="M82 803l43 241h149l25 142q12 70 37 122.5t69.5 94t115.5 63t167 21.5q77 0 154 -12l-41 -234q-33 8 -64 8q-58 0 -83 -28.5t-36 -94.5l-14 -82h164l-43 -241h-164l-141 -803h-330l141 803h-149zM705 0l184 1044h330l-185 -1044h-329zM915 1335q0 76 51.5 124t135.5 48 t134 -48t50 -124t-50 -124t-134 -48t-135.5 48t-51.5 124z" />
<glyph unicode="&#xfb02;" horiz-adv-x="1265" d="M82 803l43 241h149l25 142q12 70 37 122.5t69.5 94t115.5 63t167 21.5q77 0 154 -12l-41 -234q-33 8 -64 8q-58 0 -83 -28.5t-36 -94.5l-14 -82h164l-43 -241h-164l-141 -803h-330l141 803h-149zM705 0l260 1475h329l-260 -1475h-329z" />
<glyph unicode="&#xfb03;" horiz-adv-x="1892" d="M82 803l43 241h149l25 142q12 70 37 122.5t69.5 94t115.5 63t167 21.5q82 0 162 -12l-41 -234q-39 8 -70 8q-61 0 -85 -28.5t-36 -94.5l-14 -82h297l25 142q12 70 37 122.5t69.5 94t115.5 63t167 21.5q77 0 153 -12l-41 -234q-33 8 -63 8q-58 0 -83 -28.5t-36 -94.5 l-14 -82h164l-43 -241h-164l-141 -803h-330l141 803h-297l-141 -803h-330l141 803h-149zM1331 0l185 1044h329l-184 -1044h-330zM1542 1335q0 76 51.5 124t135.5 48t134 -48t50 -124t-50 -124t-134 -48t-135.5 48t-51.5 124z" />
<glyph unicode="&#xfb04;" horiz-adv-x="1892" d="M82 803l43 241h149l25 142q12 70 37 122.5t69.5 94t115.5 63t167 21.5q82 0 162 -12l-41 -234q-39 8 -70 8q-61 0 -85 -28.5t-36 -94.5l-14 -82h297l25 142q12 70 37 122.5t69.5 94t115.5 63t167 21.5q77 0 153 -12l-41 -234q-33 8 -63 8q-58 0 -83 -28.5t-36 -94.5 l-14 -82h164l-43 -241h-164l-141 -803h-330l141 803h-297l-141 -803h-330l141 803h-149zM1331 0l260 1475h330l-260 -1475h-330z" />
</font>
</defs>
</svg>
